<svg xmlns="http://www.w3.org/2000/svg" viewBox="0 0 194.69 48.48">
  <defs>
    <style>
      .a, .b {
        fill: #1d1d1b;
      }

      .b {
        font-size: 14.5px;
        font-family: IBMPlexSans-SemiBold, IBM Plex Sans;
        font-weight: 600;
        letter-spacing: 0em;
      }
    </style>
  </defs>
  <g>
    <path class="a" d="M34.6,20.3l-.72-2.4H30.54l-.72,2.4H27.61l3.3-10.12h2.7L36.87,20.3Zm-2.37-8.12h-.07L31.05,16h2.3Z"/>
    <path class="a" d="M40.44,20.3H38.26V10.18H43a3,3,0,0,1,3,3.24,2.88,2.88,0,0,1-1.82,2.91l2,4H43.76L42,16.59H40.44Zm2.3-5.56a.94.94,0,0,0,1-1V13.1a.94.94,0,0,0-1-1h-2.3v2.64Z"/>
    <path class="a" d="M47.26,18.84l1.43-1.47a3.26,3.26,0,0,0,2.52,1.16c1.06,0,1.58-.48,1.58-1.21,0-.56-.23-1-1.17-1.09l-1-.13c-2.11-.28-3.07-1.32-3.07-3S49,10,51.32,10a4.46,4.46,0,0,1,3.48,1.42l-1.45,1.48a2.61,2.61,0,0,0-2.16-1c-1,0-1.45.38-1.45,1s.36,1,1.19,1.09l1,.15c2.06.34,3,1.27,3,3,0,1.94-1.41,3.29-3.91,3.29A4.86,4.86,0,0,1,47.26,18.84Z"/>
    <path class="a" d="M60.16,20.3V10.18H67v2H62.35v2.07h4v1.95h-4v2.18H67v2Z"/>
    <path class="a" d="M68.9,20.3V10.18h2.19v8.16h3.82v2Z"/>
    <path class="a" d="M76.41,20.3V10.18h6.82v2H78.6v2.07h4v1.95h-4v2.18h4.63v2Z"/>
    <path class="a" d="M84.61,15.32c0-3.43,1.74-5.31,4.44-5.31a3.7,3.7,0,0,1,3.74,2.38l-1.88,1A1.77,1.77,0,0,0,89.05,12c-1.28,0-2.13.87-2.13,2.46v1.62c0,1.6.85,2.47,2.13,2.47A2.06,2.06,0,0,0,91,17l1.78,1a3.91,3.91,0,0,1-3.77,2.43C86.35,20.48,84.61,18.74,84.61,15.32Z"/>
    <path class="a" d="M98.81,12.14V20.3H96.62V12.14H93.91v-2h7.61v2Z"/>
    <path class="a" d="M105.15,20.3H103V10.18h4.75a3,3,0,0,1,3,3.24,2.88,2.88,0,0,1-1.82,2.91l2,4h-2.43l-1.75-3.71h-1.57Zm2.3-5.56a.93.93,0,0,0,1-1V13.1a.93.93,0,0,0-1-1h-2.3v2.64Z"/>
    <path class="a" d="M112.17,15.24c0-3.43,1.75-5.23,4.41-5.23s4.41,1.8,4.41,5.23-1.75,5.24-4.41,5.24S112.17,18.68,112.17,15.24Zm6.51.76V14.49c0-1.61-.79-2.52-2.1-2.52s-2.1.91-2.1,2.52V16c0,1.61.79,2.52,2.1,2.52S118.68,17.61,118.68,16Z"/>
    <path class="a" d="M125.87,15.52l-1-2h0V20.3h-2V10.18h2.38L127.93,15l1,2h0V10.18H131V20.3h-2.38Z"/>
    <path class="a" d="M132.81,20.3V18.55h1.3V11.94h-1.3V10.18h4.77v1.76h-1.29v6.61h1.29V20.3Z"/>
    <path class="a" d="M138.76,15.32c0-3.43,1.73-5.31,4.43-5.31a3.71,3.71,0,0,1,3.75,2.38l-1.88,1a1.78,1.78,0,0,0-1.87-1.4c-1.28,0-2.12.87-2.12,2.46v1.62c0,1.6.84,2.47,2.12,2.47a2.06,2.06,0,0,0,2-1.51l1.78,1a3.92,3.92,0,0,1-3.78,2.43C140.49,20.48,138.76,18.74,138.76,15.32Z"/>
    <path class="a" d="M154.69,20.3,154,17.9h-3.34l-.72,2.4H147.7L151,10.18h2.7L157,20.3Zm-2.37-8.12h-.07L151.15,16h2.29Z"/>
    <path class="a" d="M168.54,20.3h-7.09v-2l3.09-2.67c1.12-1,1.51-1.54,1.51-2.39v-.21a1.23,1.23,0,0,0-1.33-1.16,1.64,1.64,0,0,0-1.6,1.42l-1.88-.72A3.59,3.59,0,0,1,164.93,10c2.16,0,3.41,1.29,3.41,3s-1.23,2.8-2.67,3.95l-1.86,1.48h4.73Z"/>
  </g>
  <path class="a" d="M169.69,15.24c0-3.3,1.24-5.23,3.86-5.23s3.87,1.93,3.87,5.23-1.24,5.24-3.87,5.24S169.69,18.55,169.69,15.24Zm2.34.63,2.82-3.15a1.28,1.28,0,0,0-1.3-.87c-1.14,0-1.52.9-1.52,2.44Zm3.05.33V14.5l-2.86,3.18a1.28,1.28,0,0,0,1.33.95C174.7,18.63,175.08,17.74,175.08,16.2Z"/>
  <path class="a" d="M185.8,20.3h-7.09v-2l3.08-2.67c1.12-1,1.51-1.54,1.51-2.39v-.21A1.22,1.22,0,0,0,182,11.89a1.64,1.64,0,0,0-1.61,1.42l-1.88-.72A3.61,3.61,0,0,1,182.18,10c2.17,0,3.42,1.29,3.42,3s-1.24,2.8-2.67,3.95l-1.87,1.48h4.74Z"/>
  <path class="a" d="M187,15.24c0-3.3,1.24-5.23,3.86-5.23s3.87,1.93,3.87,5.23-1.24,5.24-3.87,5.24S187,18.55,187,15.24Zm2.34.63,2.82-3.15a1.29,1.29,0,0,0-1.3-.87c-1.14,0-1.52.9-1.52,2.44Zm3,.33V14.5l-2.86,3.18a1.28,1.28,0,0,0,1.33.95C192,18.63,192.35,17.74,192.35,16.2Z"/>
  <g>
    <path class="a" d="M27.94,31.3V25h3.83v.77h-3v1.95h2.67v.77H28.81V31.3Z"/>
    <path class="a" d="M32.36,29c0-1.48.82-2.44,2.11-2.44a2.06,2.06,0,0,1,2.05,2.3v.35H33.23v.19a1.24,1.24,0,0,0,1.32,1.33,1.35,1.35,0,0,0,1.26-.76l.54.46a2.06,2.06,0,0,1-1.88,1C33.18,31.41,32.36,30.45,32.36,29Zm.87-.44v.06h2.4V28.5a1.16,1.16,0,0,0-1.16-1.29A1.24,1.24,0,0,0,33.23,28.53Z"/>
    <path class="a" d="M37.22,30.51l.57-.49a1.66,1.66,0,0,0,1.35.7c.59,0,.91-.26.91-.7s-.18-.58-.74-.66l-.4-.07c-.89-.12-1.51-.49-1.51-1.36s.71-1.4,1.69-1.4a2,2,0,0,1,1.69.75l-.54.5a1.43,1.43,0,0,0-1.18-.56c-.56,0-.85.26-.85.66s.27.59.81.67l.4.06c1,.15,1.44.6,1.44,1.32,0,.91-.68,1.48-1.78,1.48A2.21,2.21,0,0,1,37.22,30.51Z"/>
    <path class="a" d="M43.13,31.3a.8.8,0,0,1-.88-.88V27.35H41.5v-.71h.42c.31,0,.41-.12.41-.43v-.86h.76v1.29h1v.71h-1v3.24H44v.71Z"/>
    <path class="a" d="M45.1,25.21v-.13c0-.27.16-.46.51-.46s.5.19.5.46v.13c0,.27-.15.46-.5.46S45.1,25.48,45.1,25.21Zm.08,1.43H46V31.3h-.84Z"/>
    <path class="a" d="M48.5,31.3l-1.61-4.66h.84l.76,2.23L49,30.48H49l.49-1.61.77-2.23h.81L49.49,31.3Z"/>
    <path class="a" d="M55.29,31.3a.78.78,0,0,1-.82-.77h0a1.32,1.32,0,0,1-1.35.88A1.36,1.36,0,0,1,51.54,30c0-.9.65-1.38,2-1.38h.88v-.42c0-.63-.33-1-1-1a1.25,1.25,0,0,0-1.14.67l-.5-.46a1.82,1.82,0,0,1,1.69-.91c1.16,0,1.83.59,1.83,1.6v2.46h.52v.71Zm-.88-1.37v-.72h-.89c-.77,0-1.11.24-1.11.67v.18c0,.43.33.67.86.67S54.41,30.4,54.41,29.93Z"/>
    <path class="a" d="M57.63,31.3a.78.78,0,0,1-.87-.85V24.64h.83v5.95h.67v.71Z"/>
    <path class="a" d="M61.61,27.35h-.75v-.71h.75v-.87a1,1,0,0,1,1.09-1.13h.73v.71h-1v1.29h1v.71h-1V31.3h-.84Z"/>
    <path class="a" d="M64,29a2.15,2.15,0,1,1,4.25,0A2.15,2.15,0,1,1,64,29Zm3.35.35v-.7c0-.91-.5-1.37-1.23-1.37s-1.23.46-1.23,1.37v.7c0,.91.5,1.37,1.23,1.37S67.31,30.23,67.31,29.32Z"/>
    <path class="a" d="M69.34,31.3V26.64h.84v.89h0a1.3,1.3,0,0,1,1.32-.89h.28v.84H71.4c-.77,0-1.22.3-1.22.76V31.3Z"/>
    <path class="a" d="M78.79,31.3l-.59-1.77H75.75l-.61,1.77h-.88L76.44,25h1.1l2.17,6.28ZM77,25.82h0l-1,2.93h2Z"/>
    <path class="a" d="M80.63,31.3V26.64h.84v.89h0a1.29,1.29,0,0,1,1.31-.89h.28v.84H82.7c-.78,0-1.23.3-1.23.76V31.3Z"/>
    <path class="a" d="M85.17,31.3a.8.8,0,0,1-.88-.88V27.35h-.75v-.71H84c.32,0,.42-.12.42-.43v-.86h.76v1.29h1v.71h-1v3.24h.92v.71Z"/>
    <path class="a" d="M88.34,30.73v.13a2.33,2.33,0,0,1-.85,1.65h-.65a2.53,2.53,0,0,0,.71-1.13.48.48,0,0,1-.4-.52v-.13a.6.6,0,0,1,1.19,0Z"/>
    <path class="a" d="M93.25,25.79H91.31V25h4.76v.77H94.13V31.3h-.88Z"/>
    <path class="a" d="M96.08,29c0-1.48.82-2.44,2.11-2.44a2.06,2.06,0,0,1,2,2.3v.35H97v.19a1.24,1.24,0,0,0,1.32,1.33,1.36,1.36,0,0,0,1.26-.76l.54.46a2.06,2.06,0,0,1-1.88,1C96.9,31.41,96.08,30.45,96.08,29Zm.87-.44v.06h2.4V28.5a1.16,1.16,0,0,0-1.16-1.29A1.23,1.23,0,0,0,97,28.53Z"/>
    <path class="a" d="M101,29c0-1.49.76-2.44,2.09-2.44a1.77,1.77,0,0,1,1.77,1.12l-.69.34a1.07,1.07,0,0,0-1.08-.74,1.16,1.16,0,0,0-1.2,1.32v.81a1.16,1.16,0,0,0,1.2,1.31,1.24,1.24,0,0,0,1.19-.79l.62.38a1.83,1.83,0,0,1-1.81,1.13C101.8,31.41,101,30.46,101,29Z"/>
    <path class="a" d="M105.91,24.64h.83V27.4h.05a1.31,1.31,0,0,1,1.31-.87c1,0,1.54.66,1.54,1.79v3h-.84V28.45c0-.78-.32-1.19-1-1.19s-1.08.28-1.08.85V31.3h-.83Z"/>
    <path class="a" d="M111,31.3V26.64h.84v.76h.05a1.31,1.31,0,0,1,1.31-.87c1,0,1.54.66,1.54,1.79v3h-.84V28.45c0-.78-.32-1.19-1-1.19s-1.08.28-1.08.85V31.3Z"/>
    <path class="a" d="M115.86,29a2.15,2.15,0,1,1,4.25,0,2.15,2.15,0,1,1-4.25,0Zm3.36.35v-.7A1.2,1.2,0,0,0,118,27.25c-.73,0-1.23.46-1.23,1.37v.7c0,.91.5,1.37,1.23,1.37A1.2,1.2,0,0,0,119.22,29.32Z"/>
    <path class="a" d="M122.11,31.3a.79.79,0,0,1-.88-.85V24.64h.84v5.95h.67v.71Z"/>
    <path class="a" d="M123.39,29a2.15,2.15,0,1,1,4.25,0,2.15,2.15,0,1,1-4.25,0Zm3.36.35v-.7c0-.91-.5-1.37-1.23-1.37a1.2,1.2,0,0,0-1.24,1.37v.7a1.2,1.2,0,0,0,1.24,1.37C126.25,30.69,126.75,30.23,126.75,29.32Z"/>
    <path class="a" d="M130.47,33.21c-1.49,0-2.08-.41-2.08-1.13a.87.87,0,0,1,.76-.9v-.1a.7.7,0,0,1-.46-.69c0-.47.35-.7.81-.81v0a1.5,1.5,0,0,1-.86-1.42,1.6,1.6,0,0,1,1.8-1.6,2.31,2.31,0,0,1,.86.16v-.1c0-.38.18-.64.57-.64h.71v.71h-.92v.25a1.47,1.47,0,0,1,.59,1.22,1.6,1.6,0,0,1-1.81,1.6,2.12,2.12,0,0,1-.52-.06c-.27.08-.53.24-.53.5s.26.35.68.35h1.06c1.15,0,1.65.48,1.65,1.26C132.78,32.74,132,33.21,130.47,33.21Zm.61-1.93h-1.57a.64.64,0,0,0-.38.6c0,.38.28.69,1,.69h.63c.8,0,1.23-.23,1.23-.71S131.76,31.28,131.08,31.28Zm.33-3V28c0-.57-.37-.85-1-.85s-1,.28-1,.85v.23c0,.57.36.85,1,.85S131.41,28.82,131.41,28.25Z"/>
    <path class="a" d="M136.46,26.64h.81l-2,5.68a1,1,0,0,1-1.16.78h-.46v-.71h.77l.31-.9L133,26.64h.83l1,3,.24.87h.05l.27-.87Z"/>
    <path class="a" d="M143.9,30.61a2.34,2.34,0,0,1-1.82.8,1.76,1.76,0,0,1-2-1.74,2,2,0,0,1,1.28-1.77,2.19,2.19,0,0,1-.7-1.48,1.54,1.54,0,0,1,1.67-1.51,1.4,1.4,0,0,1,1.57,1.37c0,.82-.63,1.29-1.4,1.73l1.33,1.43a5.12,5.12,0,0,0,.29-1.47h1.28v.7h-.63a4.55,4.55,0,0,1-.43,1.32l1.24,1.31h-1.08Zm-.45-.5-1.63-1.73a1.27,1.27,0,0,0-.84,1.17v.12c0,.62.46,1,1.19,1A1.65,1.65,0,0,0,143.45,30.11Zm-1.95-3.73v.09a1.79,1.79,0,0,0,.59,1.07c.54-.3,1-.67,1-1.14v-.09a.74.74,0,0,0-.8-.72A.79.79,0,0,0,141.5,26.38Z"/>
    <path class="a" d="M148.26,30.33l.62-.56a2,2,0,0,0,1.67.87c.85,0,1.31-.44,1.31-1.1s-.3-.84-1.08-1l-.53-.11c-1.18-.24-1.8-.77-1.8-1.75s.84-1.76,2.13-1.76a2.43,2.43,0,0,1,2.1,1l-.64.51a1.72,1.72,0,0,0-1.5-.75c-.77,0-1.23.34-1.23,1s.35.81,1.1,1l.53.11c1.23.27,1.78.82,1.78,1.78,0,1.16-.82,1.92-2.21,1.92A2.64,2.64,0,0,1,148.26,30.33Z"/>
    <path class="a" d="M153.57,29a2.15,2.15,0,1,1,4.25,0,2.15,2.15,0,1,1-4.25,0Zm3.36.35v-.7a1.2,1.2,0,0,0-1.24-1.37c-.73,0-1.23.46-1.23,1.37v.7c0,.91.5,1.37,1.23,1.37A1.2,1.2,0,0,0,156.93,29.32Z"/>
    <path class="a" d="M158.62,29c0-1.49.76-2.44,2.1-2.44a1.76,1.76,0,0,1,1.76,1.12l-.69.34a1.06,1.06,0,0,0-1.07-.74,1.17,1.17,0,0,0-1.21,1.32v.81a1.16,1.16,0,0,0,1.21,1.31,1.23,1.23,0,0,0,1.18-.79l.62.38a1.83,1.83,0,0,1-1.8,1.13C159.38,31.41,158.62,30.46,158.62,29Z"/>
    <path class="a" d="M163.41,25.21v-.13c0-.27.15-.46.5-.46s.5.19.5.46v.13c0,.27-.15.46-.5.46S163.41,25.48,163.41,25.21Zm.08,1.43h.83V31.3h-.83Z"/>
    <path class="a" d="M165.46,29c0-1.48.82-2.44,2.11-2.44a2.06,2.06,0,0,1,2.05,2.3v.35h-3.29v.19a1.24,1.24,0,0,0,1.32,1.33,1.36,1.36,0,0,0,1.26-.76l.54.46a2.06,2.06,0,0,1-1.88,1C166.28,31.41,165.46,30.45,165.46,29Zm.87-.44v.06h2.4V28.5a1.16,1.16,0,0,0-1.16-1.29A1.23,1.23,0,0,0,166.33,28.53Z"/>
    <path class="a" d="M171.89,31.3a.8.8,0,0,1-.88-.88V27.35h-.75v-.71h.42c.31,0,.41-.12.41-.43v-.86h.76v1.29h1v.71h-1v3.24h.93v.71Z"/>
    <path class="a" d="M176.82,26.64h.81l-2,5.68c-.21.58-.44.78-1.15.78H174v-.71h.77l.31-.9-1.73-4.85h.84l1,3,.25.87h0l.27-.87Z"/>
  </g>
  <g>
    <path class="a" d="M34.09,46.74H34c-.18,1-1.14,1.74-2.66,1.74-2.37,0-4.17-1.82-4.17-5.21S29,38,31.72,38a4,4,0,0,1,3.82,2.3L34,41.23a2.31,2.31,0,0,0-2.27-1.52c-1.5,0-2.48.94-2.48,2.72v1.62a2.4,2.4,0,0,0,2.51,2.73c1.18,0,2.16-.58,2.16-1.73V44.4h-2V42.79h3.83V48.3H34.09Z"/>
    <path class="a" d="M37.3,46.24c0-1.55,1.17-2.32,3.23-2.32h1.29v-.55c0-.84-.42-1.33-1.4-1.33a2,2,0,0,0-1.73,1l-1.1-1a3.19,3.19,0,0,1,3-1.45c2,0,3.13,1,3.13,2.7v3.56h.75V48.3h-1A1.37,1.37,0,0,1,42,47h-.09a2,2,0,0,1-2.2,1.48A2.15,2.15,0,0,1,37.3,46.24Zm4.52-.2V45H40.63c-1,0-1.45.33-1.45.93v.24c0,.61.42.92,1.15.92S41.82,46.75,41.82,46Z"/>
    <path class="a" d="M45.93,48.3V40.74h1.85V42.3h.08a1.92,1.92,0,0,1,2-1.56h.4v1.75h-.58c-1.25,0-1.9.35-1.9,1.17V48.3Z"/>
    <path class="a" d="M56.24,47h-.08a2.11,2.11,0,0,1-2.08,1.44c-1.9,0-3-1.44-3-4s1.06-3.94,3-3.94A2.07,2.07,0,0,1,56.16,42h.08v-4.4h1.85V48.3H56.24Zm0-1.33V43.3c0-.74-.69-1.22-1.57-1.22a1.61,1.61,0,0,0-1.61,1.79v1.3a1.6,1.6,0,0,0,1.61,1.77C55.55,46.94,56.24,46.49,56.24,45.71Z"/>
    <path class="a" d="M59.72,44.5c0-2.39,1.29-3.94,3.5-3.94,2.37,0,3.45,1.74,3.45,3.81V45h-5v.19A1.69,1.69,0,0,0,63.49,47a2.29,2.29,0,0,0,1.92-1l1,1.11a3.73,3.73,0,0,1-3.13,1.4C61.05,48.48,59.72,46.92,59.72,44.5Zm1.92-.78v.12h3.11v-.13c0-1.05-.54-1.76-1.5-1.76A1.61,1.61,0,0,0,61.64,43.72Z"/>
    <path class="a" d="M68.3,48.3V40.74h1.86V42h.07a2.07,2.07,0,0,1,2.11-1.44c1.56,0,2.43,1.07,2.43,3V48.3H72.91V43.71c0-1.08-.36-1.63-1.25-1.63s-1.5.41-1.5,1.22v5Z"/>
  </g>
  <polygon class="a" points="0 20.33 0 18.35 8.36 18.35 8.36 13.39 0 13.39 0 11.41 10.34 11.41 10.34 20.33 0 20.33"/>
  <rect class="a" y="14.88" width="6.86" height="1.98"/>
  <polygon class="a" points="1.42 0 3.39 0 3.39 7.94 8.36 7.94 8.36 1.42 17.28 1.42 17.28 6.44 15.3 6.44 15.3 3.39 10.34 3.39 10.34 9.91 1.42 9.91 1.42 0"/>
  <rect class="a" x="4.89" width="1.98" height="6.44"/>
  <polygon class="a" points="22.17 20.33 22.17 18.35 13.81 18.35 13.81 13.39 22.17 13.39 22.17 11.41 11.83 11.41 11.83 20.33 22.17 20.33"/>
  <rect class="a" x="15.3" y="14.88" width="6.86" height="1.98"/>
  <polygon class="a" points="11.83 4.89 13.81 4.89 13.81 7.93 18.78 7.93 18.78 0 20.75 0 20.75 9.91 11.83 9.91 11.83 4.89"/>
  <polygon class="a" points="0 20.33 0 18.35 8.36 18.35 8.36 13.39 0 13.39 0 11.41 10.34 11.41 10.34 20.33 0 20.33"/>
  <rect class="a" y="14.88" width="6.86" height="1.98"/>
  <polygon class="a" points="1.42 0 3.39 0 3.39 7.94 8.36 7.94 8.36 1.42 17.28 1.42 17.28 6.44 15.3 6.44 15.3 3.39 10.34 3.39 10.34 9.91 1.42 9.91 1.42 0"/>
  <rect class="a" x="4.89" width="1.98" height="6.44"/>
  <polygon class="a" points="22.17 20.33 22.17 18.35 13.81 18.35 13.81 13.39 22.17 13.39 22.17 11.41 11.83 11.41 11.83 20.33 22.17 20.33"/>
  <rect class="a" x="15.3" y="14.88" width="6.86" height="1.98"/>
  <polygon class="a" points="11.83 4.89 13.81 4.89 13.81 7.93 18.78 7.93 18.78 0 20.75 0 20.75 9.91 11.83 9.91 11.83 4.89"/>
  <text class="b" transform="translate(79.04 48.3)">LINZ</text>
</svg>
