<?xml version="1.0" encoding="utf-8"?>
<!-- Generator: Adobe Illustrator 24.3.0, SVG Export Plug-In . SVG Version: 6.00 Build 0)  -->
<svg version="1.1" id="Ebene_1" xmlns="http://www.w3.org/2000/svg" xmlns:xlink="http://www.w3.org/1999/xlink" x="0px" y="0px"
	 viewBox="0 0 577.23 99.63" style="enable-background:new 0 0 577.23 99.63;" xml:space="preserve">
<path d="M526.75,88.86l-0.81,2.62h-0.14l-0.73-2.62l-3.1-8.94h-2.51l5.18,14.55l-0.95,2.7h-2.29v2.13h1.38
	c2.13,0,2.81-0.59,3.46-2.35l6.07-17.04h-2.43L526.75,88.86z M517.76,93.9v-2.13h-2.78v-9.72h3v-2.13h-3v-3.86h-2.27v2.57
	c0,0.95-0.3,1.3-1.24,1.3h-1.24v2.13h2.24v9.21c0,1.62,0.92,2.65,2.65,2.65H517.76z M502.18,81.62c2.11,0,3.46,1.57,3.46,3.89v0.27
	h-7.18v-0.19C498.45,83.29,499.99,81.62,502.18,81.62 M502.18,94.23c2.62,0,4.64-1.21,5.62-3.02l-1.62-1.38
	c-0.76,1.43-2.02,2.27-3.78,2.27c-2.51,0-3.94-1.67-3.94-4v-0.57h9.85v-1.05c0-3.92-2.21-6.89-6.13-6.89
	c-3.89,0-6.35,2.89-6.35,7.32C495.83,91.34,498.29,94.23,502.18,94.23 M489.95,93.9h2.51V79.92h-2.51V93.9z M491.22,77
	c1.05,0,1.51-0.57,1.51-1.38v-0.38c0-0.81-0.46-1.38-1.51-1.38c-1.05,0-1.51,0.57-1.51,1.38v0.38C489.71,76.44,490.16,77,491.22,77
	 M481.66,94.23c2.67,0,4.51-1.3,5.4-3.4l-1.84-1.13c-0.7,1.51-1.86,2.38-3.56,2.38c-2.4,0-3.62-1.65-3.62-3.94V85.7
	c0-2.29,1.22-3.94,3.62-3.94c1.62,0,2.75,0.84,3.21,2.21l2.08-1.03c-0.81-2-2.54-3.35-5.29-3.35c-4,0-6.29,2.83-6.29,7.32
	C475.37,91.39,477.66,94.23,481.66,94.23 M466.62,92.07c-2.19,0-3.7-1.38-3.7-4.1v-2.11c0-2.73,1.51-4.1,3.7-4.1
	c2.19,0,3.7,1.38,3.7,4.1v2.11C470.32,90.69,468.81,92.07,466.62,92.07 M466.62,94.23c3.81,0,6.37-2.86,6.37-7.32
	c0-4.45-2.57-7.32-6.37-7.32c-3.81,0-6.37,2.86-6.37,7.32C460.25,91.37,462.81,94.23,466.62,94.23 M451.07,94.23
	c4.18,0,6.64-2.27,6.64-5.75c0-2.89-1.65-4.54-5.35-5.35l-1.59-0.32c-2.24-0.49-3.29-1.24-3.29-2.92c0-1.86,1.38-2.86,3.67-2.86
	c2.13,0,3.51,0.86,4.51,2.24l1.92-1.54c-1.43-1.94-3.46-3-6.29-3c-3.86,0-6.4,1.92-6.4,5.27c0,2.94,1.86,4.54,5.4,5.26l1.59,0.32
	c2.35,0.51,3.24,1.38,3.24,3.02c0,2-1.38,3.32-3.94,3.32c-2.11,0-3.67-0.92-4.99-2.62l-1.86,1.67
	C445.83,92.99,447.99,94.23,451.07,94.23 M426.07,92.07c-2.19,0-3.56-1.19-3.56-3.05v-0.38c0-1.89,1.13-2.75,2.54-3.51l4.86,5.21
	C428.98,91.39,427.74,92.07,426.07,92.07 M426.55,76.79c1.3,0,2.4,0.78,2.4,2.13v0.3c0,1.4-1.51,2.51-3.1,3.4
	c-1.11-1.21-1.78-2.19-1.78-3.21v-0.27C424.07,77.79,425.12,76.79,426.55,76.79 M433.17,93.9h3.21l-3.7-3.94
	c0.59-1.13,1.03-2.46,1.3-3.94h1.86v-2.11h-3.83c-0.08,1.51-0.35,3.05-0.86,4.4l-4-4.29c2.32-1.3,4.21-2.73,4.21-5.18
	c0-2.48-1.94-4.1-4.7-4.1c-3.05,0-5.02,2-5.02,4.54c0,1.67,0.86,3.11,2.11,4.43c-1.97,1.11-3.83,2.54-3.83,5.32
	c0,2.92,2.08,5.21,5.89,5.21c2.97,0,4.64-1.46,5.48-2.4L433.17,93.9z M405.85,88.86l-0.81,2.62h-0.13l-0.73-2.62l-3.11-8.94h-2.51
	l5.18,14.55l-0.95,2.7h-2.29v2.13h1.38c2.13,0,2.81-0.59,3.46-2.35l6.07-17.04h-2.43L405.85,88.86z M390.91,87.29
	c-1.78,0-2.89-0.84-2.89-2.54v-0.7c0-1.7,1.11-2.54,2.89-2.54s2.89,0.84,2.89,2.54v0.7C393.8,86.45,392.7,87.29,390.91,87.29
	 M395.56,95.58c0,1.43-1.3,2.13-3.67,2.13H390c-2.19,0-3.02-0.92-3.02-2.08c0-0.78,0.35-1.38,1.13-1.78h4.7
	C394.86,93.85,395.56,94.53,395.56,95.58 M397.91,95.34c0-2.35-1.48-3.78-4.94-3.78h-3.19c-1.27,0-2.05-0.24-2.05-1.05
	c0-0.78,0.78-1.24,1.59-1.48c0.46,0.11,1.03,0.16,1.57,0.16c3.38,0,5.43-1.94,5.43-4.78c0-1.54-0.62-2.83-1.76-3.67v-0.76h2.75
	v-2.11h-2.13c-1.19,0-1.7,0.76-1.7,1.92v0.3c-0.76-0.3-1.62-0.49-2.59-0.49c-3.35,0-5.4,1.97-5.4,4.81c0,1.92,0.95,3.46,2.59,4.24
	v0.11c-1.38,0.32-2.43,1.03-2.43,2.43c0,1,0.49,1.7,1.38,2.05v0.3c-1.43,0.35-2.29,1.19-2.29,2.7c0,2.16,1.78,3.4,6.24,3.4
	C395.69,99.63,397.91,98.22,397.91,95.34 M376.15,92.07c-2.19,0-3.7-1.38-3.7-4.1v-2.11c0-2.73,1.51-4.1,3.7-4.1s3.7,1.38,3.7,4.1
	v2.11C379.84,90.69,378.33,92.07,376.15,92.07 M376.15,94.23c3.81,0,6.37-2.86,6.37-7.32c0-4.45-2.57-7.32-6.37-7.32
	s-6.37,2.86-6.37,7.32C369.77,91.37,372.34,94.23,376.15,94.23 M367.83,93.9v-2.13h-2V73.92h-2.51v17.42c0,1.54,0.89,2.56,2.62,2.56
	H367.83z M353.57,92.07c-2.19,0-3.7-1.38-3.7-4.1v-2.11c0-2.73,1.51-4.1,3.7-4.1c2.19,0,3.7,1.38,3.7,4.1v2.11
	C357.27,90.69,355.76,92.07,353.57,92.07 M353.57,94.23c3.81,0,6.37-2.86,6.37-7.32c0-4.45-2.57-7.32-6.37-7.32
	c-3.81,0-6.37,2.86-6.37,7.32C347.2,91.37,349.77,94.23,353.57,94.23 M335.29,93.9v-9.58c0-1.7,1.59-2.54,3.24-2.54
	c1.97,0,2.94,1.21,2.94,3.56v8.56h2.51v-8.94c0-3.4-1.76-5.37-4.62-5.37c-2.11,0-3.29,1.08-3.94,2.62h-0.14v-2.29h-2.51V93.9H335.29
	z M317.37,93.9h2.51v-9.58c0-1.7,1.59-2.54,3.24-2.54c1.97,0,2.94,1.21,2.94,3.56v8.56h2.51v-8.94c0-3.4-1.76-5.37-4.62-5.37
	c-2.11,0-3.29,1.08-3.94,2.62h-0.14v-8.29h-2.51V93.9z M309.08,94.23c2.67,0,4.51-1.3,5.4-3.4l-1.84-1.13
	c-0.7,1.51-1.86,2.38-3.56,2.38c-2.4,0-3.62-1.65-3.62-3.94V85.7c0-2.29,1.22-3.94,3.62-3.94c1.62,0,2.75,0.84,3.21,2.21l2.08-1.03
	c-0.81-2-2.54-3.35-5.29-3.35c-4,0-6.29,2.83-6.29,7.32C302.79,91.39,305.08,94.23,309.08,94.23 M294.28,81.62
	c2.11,0,3.46,1.57,3.46,3.89v0.27h-7.18v-0.19C290.56,83.29,292.1,81.62,294.28,81.62 M294.28,94.23c2.62,0,4.64-1.21,5.62-3.02
	l-1.62-1.38c-0.76,1.43-2.02,2.27-3.78,2.27c-2.51,0-3.94-1.67-3.94-4v-0.57h9.85v-1.05c0-3.92-2.21-6.89-6.13-6.89
	c-3.89,0-6.35,2.89-6.35,7.32C287.94,91.34,290.39,94.23,294.28,94.23 M279.46,93.9h2.62V77.38h5.83v-2.32h-14.28v2.32h5.83V93.9z
	 M262.99,90.48c-1.24,0-1.78,0.7-1.78,1.7v0.4c0,0.81,0.38,1.4,1.19,1.57c-0.32,1.27-1.03,2.24-2.13,3.38h1.97
	c1.59-1.32,2.54-3.35,2.54-4.94v-0.4C264.77,91.18,264.23,90.48,262.99,90.48 M257.91,93.9v-2.13h-2.78v-9.72h3v-2.13h-3v-3.86
	h-2.27v2.57c0,0.95-0.3,1.3-1.24,1.3h-1.24v2.13h2.24v9.21c0,1.62,0.92,2.65,2.65,2.65H257.91z M244.17,93.9v-9.18
	c0-1.38,1.35-2.3,3.67-2.3h1.24v-2.51h-0.84c-2.24,0-3.48,1.3-3.94,2.67h-0.14v-2.67h-2.51V93.9H244.17z M233.72,86.26h-6.08
	l2.97-8.8h0.14L233.72,86.26z M238.91,93.9l-6.51-18.85h-3.29l-6.53,18.85h2.65l1.81-5.32h7.34l1.78,5.32H238.91z M210.31,93.9
	v-9.18c0-1.38,1.35-2.3,3.67-2.3h1.24v-2.51h-0.84c-2.24,0-3.48,1.3-3.94,2.67h-0.13v-2.67h-2.51V93.9H210.31z M198.06,92.07
	c-2.19,0-3.7-1.38-3.7-4.1v-2.11c0-2.73,1.51-4.1,3.7-4.1c2.19,0,3.7,1.38,3.7,4.1v2.11C201.75,90.69,200.24,92.07,198.06,92.07
	 M198.06,94.23c3.81,0,6.37-2.86,6.37-7.32c0-4.45-2.57-7.32-6.37-7.32c-3.81,0-6.37,2.86-6.37,7.32
	C191.68,91.37,194.25,94.23,198.06,94.23 M184.66,93.9h2.51V82.05h2.94v-2.13h-2.94v-3.86h2.94v-2.13h-2.19
	c-2.19,0-3.27,1.35-3.27,3.4v2.59h-2.24v2.13h2.24V93.9z M174.65,93.9v-2.13h-2V73.92h-2.51v17.42c0,1.54,0.89,2.56,2.62,2.56
	H174.65z M159.69,92.2c-1.57,0-2.57-0.73-2.57-2.03v-0.54c0-1.3,1.03-2,3.32-2h2.67v2.16C163.12,91.2,161.66,92.2,159.69,92.2
	 M167.2,93.9v-2.13h-1.57V84.4c0-3.02-2-4.81-5.48-4.81c-2.59,0-4.24,1.21-5.08,2.73l1.51,1.38c0.73-1.19,1.78-2,3.43-2
	c2.11,0,3.11,1.05,3.11,2.92v1.27h-2.65c-4,0-5.97,1.46-5.97,4.16c0,2.56,1.7,4.18,4.62,4.18c2,0,3.48-0.92,4.05-2.65h0.14
	c0.19,1.35,0.92,2.32,2.46,2.32H167.2z M148.38,93.9l4.86-13.99h-2.4l-2.32,6.7l-1.48,4.83h-0.16l-1.46-4.83l-2.3-6.7h-2.51
	l4.83,13.99H148.38z M135.5,93.9h2.51V79.92h-2.51V93.9z M136.77,77c1.05,0,1.51-0.57,1.51-1.38v-0.38c0-0.81-0.46-1.38-1.51-1.38
	c-1.05,0-1.51,0.57-1.51,1.38v0.38C135.25,76.44,135.71,77,136.77,77 M131.99,93.9v-2.13h-2.78v-9.72h3v-2.13h-3v-3.86h-2.27v2.57
	c0,0.95-0.3,1.3-1.24,1.3h-1.24v2.13h2.24v9.21c0,1.62,0.92,2.65,2.65,2.65H131.99z M117.22,94.23c3.29,0,5.35-1.7,5.35-4.43
	c0-2.16-1.27-3.51-4.35-3.97l-1.19-0.19c-1.62-0.24-2.43-0.76-2.43-2c0-1.19,0.86-1.97,2.57-1.97c1.67,0,2.86,0.78,3.54,1.67
	l1.59-1.51c-1.19-1.4-2.67-2.24-5.05-2.24c-2.94,0-5.08,1.46-5.08,4.21c0,2.59,1.86,3.7,4.54,4.08l1.19,0.19
	c1.7,0.24,2.24,0.97,2.24,2c0,1.3-0.97,2.08-2.75,2.08c-1.7,0-3-0.76-4.05-2.08l-1.7,1.46C112.93,93.18,114.63,94.23,117.22,94.23
	 M103.42,81.62c2.11,0,3.46,1.57,3.46,3.89v0.27H99.7v-0.19C99.7,83.29,101.23,81.62,103.42,81.62 M103.42,94.23
	c2.62,0,4.64-1.21,5.62-3.02l-1.62-1.38c-0.76,1.43-2.02,2.27-3.78,2.27c-2.51,0-3.94-1.67-3.94-4v-0.57h9.86v-1.05
	c0-3.92-2.21-6.89-6.13-6.89c-3.89,0-6.35,2.89-6.35,7.32C97.08,91.34,99.53,94.23,103.42,94.23 M86.44,93.9v-8.37h7.99v-2.32h-7.99
	v-5.83h8.86v-2.32H83.82V93.9H86.44z"/>
<path d="M561.08,42.85c0-4.61,1.12-7.31,4.57-7.31c1.98,0,3.23,0.96,3.88,2.61l-8.44,9.44V42.85z M565.65,55.9
	c-2.11,0-3.36-1-4.01-2.87l8.57-9.53v5.09C570.21,53.21,569.1,55.9,565.65,55.9 M565.65,61.43c7.88,0,11.59-5.78,11.59-15.7
	c0-9.92-3.7-15.7-11.59-15.7s-11.58,5.79-11.58,15.7C554.07,55.64,557.77,61.43,565.65,61.43 M551,55.42h-14.21l5.6-4.44
	c4.31-3.44,8.01-6.61,8.01-11.83c0-5.26-3.75-9.13-10.25-9.13c-6.24,0-9.73,3.52-11.07,7.74l5.64,2.18c0.6-2.3,1.98-4.26,4.82-4.26
	c1.94,0,3.96,1.17,3.96,3.48v0.61c0,2.57-1.16,4.26-4.52,7.18l-9.26,8.01v5.96H551V55.42z M510.11,42.85c0-4.61,1.12-7.31,4.57-7.31
	c1.98,0,3.23,0.96,3.88,2.61l-8.44,9.44V42.85z M514.67,55.9c-2.11,0-3.36-1-4.01-2.87l8.57-9.53v5.09
	C519.24,53.21,518.12,55.9,514.67,55.9 M514.67,61.43c7.88,0,11.58-5.78,11.58-15.7c0-9.92-3.7-15.7-11.58-15.7
	s-11.58,5.79-11.58,15.7C503.09,55.64,506.79,61.43,514.67,61.43 M500.02,55.42H485.8l5.6-4.44c4.31-3.44,8.01-6.61,8.01-11.83
	c0-5.26-3.75-9.13-10.25-9.13c-6.24,0-9.73,3.52-11.07,7.74l5.64,2.18c0.6-2.3,1.98-4.26,4.82-4.26c1.94,0,3.96,1.17,3.96,3.48v0.61
	c0,2.57-1.16,4.26-4.52,7.18l-9.26,8.01v5.96h21.27V55.42z M454.71,48.07h-6.89l3.32-11.53h0.22L454.71,48.07z M465.26,60.9
	l-9.78-30.36h-8.1l-9.91,30.36h6.63l2.15-7.22h10.03l2.15,7.22H465.26z M424.37,61.43c5.51,0,9.09-2.65,11.33-7.26l-5.34-3.13
	c-0.91,2.48-2.76,4.52-5.99,4.52c-3.83,0-6.37-2.61-6.37-7.4v-4.87c0-4.79,2.54-7.4,6.37-7.4c3.23,0,4.82,1.7,5.6,4.22l5.64-2.96
	c-2.2-4.87-5.73-7.13-11.24-7.13c-8.1,0-13.31,5.65-13.31,15.92S416.28,61.43,424.37,61.43 M408,60.9v-5.26h-3.88V35.81H408v-5.26
	h-14.3v5.26h3.88v19.84h-3.88v5.26H408z M381.5,60.9h7.15V30.54h-6.16v20.44h-0.13l-2.88-6.09l-8.23-14.35h-7.15V60.9h6.16V40.46
	h0.13l2.88,6.09L381.5,60.9z M345.83,55.55c-3.92,0-6.29-2.74-6.29-7.57v-4.52c0-4.83,2.37-7.57,6.29-7.57s6.29,2.74,6.29,7.57v4.52
	C352.12,52.81,349.75,55.55,345.83,55.55 M345.83,61.43c7.97,0,13.22-5.39,13.22-15.7c0-10.31-5.25-15.7-13.22-15.7
	c-7.97,0-13.22,5.39-13.22,15.7C332.61,56.03,337.86,61.43,345.83,61.43 M312,44.2v-7.92h6.89c1.94,0,3.14,1.04,3.14,3v1.91
	c0,1.96-1.21,3-3.14,3H312z M312,49.77h4.69l5.25,11.14h7.28l-5.9-11.92c3.66-1.39,5.47-4.65,5.47-8.74c0-5.79-3.53-9.7-9.09-9.7
	h-14.25V60.9H312V49.77z M301.54,36.41v-5.87h-22.83v5.87h8.14V60.9h6.55V36.41H301.54z M264.49,61.43c5.51,0,9.09-2.65,11.33-7.26
	l-5.34-3.13c-0.9,2.48-2.76,4.52-5.99,4.52c-3.83,0-6.37-2.61-6.37-7.4v-4.87c0-4.79,2.54-7.4,6.37-7.4c3.23,0,4.82,1.7,5.6,4.22
	l5.64-2.96c-2.2-4.87-5.73-7.13-11.24-7.13c-8.1,0-13.31,5.65-13.31,15.92S256.4,61.43,264.49,61.43 M247.49,60.9v-5.87h-13.91
	v-6.57h11.93v-5.83h-11.93v-6.22h13.91v-5.87h-20.46V60.9H247.49z M222.96,60.9v-5.87H211.5V30.54h-6.55V60.9H222.96z M199.56,60.9
	v-5.87h-13.91v-6.57h11.93v-5.83h-11.93v-6.22h13.91v-5.87H179.1V60.9H199.56z M151.8,61.43c7.49,0,11.71-4.04,11.71-9.87
	c0-5.22-2.97-8-9.13-9.01l-2.97-0.48c-2.5-0.39-3.57-1.17-3.57-3.26c0-1.83,1.42-2.96,4.35-2.96c3.1,0,5.04,1.18,6.46,2.87
	l4.35-4.44c-2.46-2.74-5.9-4.26-10.42-4.26c-7.06,0-11.28,3.79-11.28,9.22c0,5.09,2.89,8.22,9.22,9.05l2.97,0.39
	c2.8,0.39,3.49,1.61,3.49,3.26c0,2.22-1.55,3.65-4.74,3.65c-2.93,0-5.51-1.17-7.54-3.48l-4.31,4.39
	C142.97,59.38,146.55,61.43,151.8,61.43 M120.36,44.2v-7.92h6.89c1.94,0,3.14,1.04,3.14,3v1.91c0,1.96-1.21,3-3.14,3H120.36z
	 M120.36,49.77h4.7l5.25,11.14h7.28l-5.9-11.92c3.66-1.39,5.47-4.65,5.47-8.74c0-5.79-3.53-9.7-9.09-9.7h-14.25V60.9h6.54V49.77z
	 M99.48,48.07h-6.89l3.32-11.53h0.21L99.48,48.07z M110.03,60.9l-9.78-30.36h-8.1l-9.9,30.36h6.63l2.15-7.22h10.03l2.15,7.22H110.03
	z"/>
<polygon points="0,60.99 0,55.06 25.08,55.06 25.08,40.16 0,40.16 0,34.22 31.01,34.22 31.01,60.99 "/>
<rect x="0" y="44.64" width="20.59" height="5.93"/>
<polygon points="4.25,0 10.18,0 10.18,23.81 25.08,23.81 25.08,4.25 51.85,4.25 51.85,19.32 45.91,19.32 45.91,10.18 31.01,10.18 
	31.01,29.74 4.25,29.74 "/>
<rect x="14.66" y="0" width="5.93" height="19.32"/>
<polygon points="66.51,60.99 66.51,55.06 41.43,55.06 41.43,40.16 66.51,40.16 66.51,34.22 35.49,34.22 35.49,60.99 "/>
<rect x="45.91" y="44.64" width="20.6" height="5.93"/>
<polygon points="35.5,14.66 41.43,14.66 41.43,23.81 56.33,23.81 56.33,0 62.26,0 62.26,29.74 35.5,29.74 "/>
<polygon points="0,60.99 0,55.06 25.08,55.06 25.08,40.16 0,40.16 0,34.22 31.01,34.22 31.01,60.99 "/>
<rect x="0" y="44.64" width="20.59" height="5.93"/>
<polygon points="4.25,0 10.18,0 10.18,23.81 25.08,23.81 25.08,4.25 51.85,4.25 51.85,19.32 45.91,19.32 45.91,10.18 31.01,10.18 
	31.01,29.74 4.25,29.74 "/>
<rect x="14.66" y="0" width="5.93" height="19.32"/>
<polygon points="66.51,60.99 66.51,55.06 41.43,55.06 41.43,40.16 66.51,40.16 66.51,34.22 35.49,34.22 35.49,60.99 "/>
<rect x="45.91" y="44.64" width="20.6" height="5.93"/>
<polygon points="35.5,14.66 41.43,14.66 41.43,23.81 56.33,23.81 56.33,0 62.26,0 62.26,29.74 35.5,29.74 "/>
</svg>
