<?xml version="1.0" encoding="utf-8"?>
<!-- Generator: Adobe Illustrator 24.1.2, SVG Export Plug-In . SVG Version: 6.00 Build 0)  -->
<svg version="1.1" id="Ebene_1" xmlns="http://www.w3.org/2000/svg" xmlns:xlink="http://www.w3.org/1999/xlink" x="0px" y="0px"
	 viewBox="0 0 1391.1 196.5" style="enable-background:new 0 0 1391.1 196.5;" xml:space="preserve">
<style type="text/css">
	.st0{clip-path:url(#SVGID_2_);fill:#1D1D1B;}
	.st1{clip-path:url(#SVGID_4_);fill:#1D1D1B;}
	.st2{clip-path:url(#SVGID_6_);fill:#1D1D1B;}
</style>
<g>
	<g>
		<g>
			<g>
				<defs>
					<rect id="SVGID_1_" x="27.5" y="7.9" width="1587.4" height="184.3"/>
				</defs>
				<clipPath id="SVGID_2_">
					<use xlink:href="#SVGID_1_"  style="overflow:visible;"/>
				</clipPath>
				<path class="st0" d="M479.3,183.4c49.4,0,80.7-27.3,80.7-83v-87h-40.5v88.5c0,29.2-14.9,44.1-39.7,44.1s-39.7-15.5-39.7-45.4
					V13.4h-40.5v88.2C399.7,155.8,430,183.4,479.3,183.4L479.3,183.4z M114.1,115.1c0,21.2-9.4,30.5-24.7,30.5
					c-12.9,0-23.2-6.8-33.7-18.4l-25.5,28.4c12.6,15,31.6,27.6,60.2,27.6c20,0,36.5-5.8,47.8-17.1c11-11,17.3-27.3,17.3-49.1V13.4
					H114L114.1,115.1L114.1,115.1z M369.7,13.4l-92,78.8l-92-78.8V62l92,78.8l92-78.8V13.4z M369.7,140.8h-92h-92v40h184V140.8z"/>
			</g>
		</g>
		<g>
			<g>
				<defs>
					<rect id="SVGID_3_" x="27.5" y="7.9" width="1587.4" height="184.3"/>
				</defs>
				<clipPath id="SVGID_4_">
					<use xlink:href="#SVGID_3_"  style="overflow:visible;"/>
				</clipPath>
				<path class="st1" d="M641.8,181.3c20.8,0,35.8-15.7,35.8-34.7v-0.2c0-19.1-14.9-34.6-35.6-34.6c-20.7,0-35.8,15.7-35.8,34.7v0.2
					C606.2,165.9,621.1,181.3,641.8,181.3L641.8,181.3z M641.9,167.7c-11.9,0-20.3-9.6-20.3-21.1v-0.2c0-11.5,8.3-20.9,20.2-20.9
					s20.3,9.6,20.3,21.1v0.2C662.1,158.3,653.9,167.7,641.9,167.7L641.9,167.7z M689.3,180.2h14.8v-26h32v-13.4h-32v-14.3h36.4
					v-13.4h-51.2V180.2z M778.2,180.2h51.2v-13.1h-36.5V153h31.7v-13.2h-31.7v-13.7h36V113h-50.7V180.2z M841.1,180.2h26.2
					c21.1,0,35.7-14.7,35.7-33.6v-0.2c0-18.9-14.6-33.4-35.7-33.4h-26.2V180.2z M855.8,166.9v-40.6h11.5c12.1,0,20.2,8.4,20.2,20.3
					v0.2c0,11.9-8.2,20.1-20.2,20.1L855.8,166.9L855.8,166.9z M942.7,181.3c18.1,0,29.5-10,29.5-30.4V113h-14.8v38.5
					c0,10.6-5.5,16.1-14.5,16.1s-14.5-5.6-14.5-16.6v-38h-14.8v38.4C913.6,171.2,924.7,181.3,942.7,181.3 M1017.3,181.3
					c13,0,20.6-4.6,27.6-12l-9.4-9.5c-5.3,4.8-10,7.9-17.7,7.9c-11.5,0-19.4-9.6-19.4-21.1v-0.2c0-11.5,8.2-20.9,19.4-20.9
					c6.7,0,12,2.9,17.2,7.6l9.4-10.8c-6.2-6.2-13.9-10.4-26.5-10.4c-20.6,0-35,15.7-35,34.7v0.2
					C982.9,166.1,997.6,181.3,1017.3,181.3L1017.3,181.3z M1049.5,180.2h15.1l6.1-15.1h28.4l6.1,15.1h15.5l-28.8-67.7h-13.7
					L1049.5,180.2z M1076,152l8.9-21.8l8.9,21.8H1076z M1136.6,180.2h14.8v-53.6h20.4V113h-55.7v13.6h20.5L1136.6,180.2
					L1136.6,180.2z M1182.4,180.2h14.8V113h-14.8V180.2z M1245.2,181.3c20.7,0,35.8-15.7,35.8-34.7v-0.2c0-19.1-14.9-34.6-35.6-34.6
					s-35.8,15.7-35.8,34.7v0.2C1209.6,165.9,1224.5,181.3,1245.2,181.3L1245.2,181.3z M1245.4,167.7c-11.9,0-20.3-9.6-20.3-21.1
					v-0.2c0-11.5,8.2-20.9,20.2-20.9c11.9,0,20.3,9.6,20.3,21.1v0.2C1265.6,158.3,1257.3,167.7,1245.4,167.7L1245.4,167.7z
					 M1292.8,180.2h14.6v-42.7l32.5,42.7h12.6V113h-14.6v41.4l-31.5-41.4h-13.6V180.2z"/>
			</g>
		</g>
		<g>
			<g>
				<defs>
					<rect id="SVGID_5_" x="27.5" y="7.9" width="1587.4" height="184.3"/>
				</defs>
				<clipPath id="SVGID_6_">
					<use xlink:href="#SVGID_5_"  style="overflow:visible;"/>
				</clipPath>
				<path class="st2" d="M609.1,81.2h48.3V67.8h-33.5V14h-14.8V81.2z M667.8,81.2h14.8V14h-14.8V81.2z M697.9,81.2h14.6V38.5
					l32.6,42.7h12.5V14H743v41.4L711.5,14h-13.6V81.2z M770.3,81.2h55.9v-13h-37l37-43V14h-54.8v13h35.8l-37,43L770.3,81.2
					L770.3,81.2z M890.1,82.1c14.5,0,24.7-7.5,24.7-20.8v-0.2c0-11.8-7.7-16.6-21.4-20.2c-11.6-3-14.5-4.4-14.5-8.9v-0.2
					c0-3.2,2.9-5.8,8.6-5.8c5.6,0,11.5,2.5,17.5,6.6l7.7-11.2c-6.8-5.5-15.2-8.5-25-8.5c-13.7,0-23.5,8-23.5,20.3v0.2
					c0,13.3,8.8,17.1,22.3,20.5c11.2,2.9,13.6,4.8,13.6,8.6v0.2c0,3.9-3.7,6.3-9.7,6.3c-7.7,0-14-3.1-20-8.2l-8.8,10.5
					C869.7,78.6,880,82.1,890.1,82.1L890.1,82.1z M957.7,82.3c13,0,20.6-4.6,27.5-12l-9.4-9.5c-5.3,4.8-10,7.9-17.6,7.9
					c-11.5,0-19.5-9.6-19.5-21.1v-0.2c0-11.5,8.2-20.9,19.5-20.9c6.7,0,12,2.9,17.2,7.6l9.4-10.8c-6.2-6.2-13.8-10.4-26.5-10.4
					c-20.6,0-35,15.7-35,34.7v0.2C923.2,67.1,937.9,82.3,957.7,82.3 M995.6,81.2h14.8v-27h27.3v27h14.8V14h-14.8v26.6h-27.3V14
					h-14.8V81.2z M1099.8,82.3c20.7,0,35.8-15.7,35.8-34.7v-0.2c0-19.1-14.9-34.6-35.6-34.6s-35.8,15.7-35.8,34.7v0.2
					C1064.2,66.9,1079,82.3,1099.8,82.3L1099.8,82.3z M1100,68.7c-11.9,0-20.3-9.6-20.3-21.1v-0.2c0-11.5,8.2-20.9,20.2-20.9
					c11.9,0,20.3,9.6,20.3,21.1v0.2C1120.1,59.3,1111.9,68.7,1100,68.7L1100,68.7z M1180,82.3c20.7,0,35.8-15.7,35.8-34.7v-0.2
					c0-19.1-14.9-34.6-35.6-34.6c-20.8,0-35.8,15.7-35.8,34.7v0.2C1144.3,66.9,1159.2,82.3,1180,82.3L1180,82.3z M1180.1,68.7
					c-11.9,0-20.3-9.6-20.3-21.1v-0.2c0-11.5,8.2-20.9,20.2-20.9c11.9,0,20.3,9.6,20.3,21.1v0.2C1200.3,59.3,1192,68.7,1180.1,68.7
					L1180.1,68.7z M1227.5,81.2h48.3V67.8h-33.5V14h-14.8V81.2z"/>
			</g>
		</g>
	</g>
</g>
</svg>
