<?xml version="1.0" encoding="utf-8"?>
<!-- Generator: Adobe Illustrator 24.1.2, SVG Export Plug-In . SVG Version: 6.00 Build 0)  -->
<svg version="1.1" id="Ebene_1" xmlns="http://www.w3.org/2000/svg" xmlns:xlink="http://www.w3.org/1999/xlink" x="0px" y="0px"
	 viewBox="0 0 1326.3 170.3" style="enable-background:new 0 0 1326.3 170.3;" xml:space="preserve">
<style type="text/css">
	.st0{clip-path:url(#SVGID_2_);fill:#9C477B;}
	.st1{clip-path:url(#SVGID_4_);fill:#9C477B;}
	.st2{clip-path:url(#SVGID_6_);fill:#9C477B;}
</style>
<g>
	<g>
		<g>
			<defs>
				<rect id="SVGID_1_" y="-6.1" width="1587.4" height="184.3"/>
			</defs>
			<clipPath id="SVGID_2_">
				<use xlink:href="#SVGID_1_"  style="overflow:visible;"/>
			</clipPath>
			<path class="st0" d="M451.8,169.4c49.4,0,80.7-27.3,80.7-83v-87H492v88.5c0,29.2-14.9,44.1-39.7,44.1s-39.7-15.5-39.7-45.4V-0.6
				h-40.5v88.2C372.2,141.8,402.5,169.4,451.8,169.4L451.8,169.4z M86.6,101.1c0,21.2-9.4,30.5-24.7,30.5
				c-12.9,0-23.2-6.8-33.7-18.4L2.7,141.6c12.6,15,31.6,27.6,60.2,27.6c20,0,36.5-5.8,47.8-17.1c11-11,17.3-27.3,17.3-49.1V-0.6
				H86.5L86.6,101.1L86.6,101.1z M342.2-0.6l-92,78.8l-92-78.8V48l92,78.8l92-78.8V-0.6z M342.2,126.8h-92h-92v40h184V126.8z"/>
		</g>
		<g>
			<defs>
				<rect id="SVGID_3_" y="-6.1" width="1587.4" height="184.3"/>
			</defs>
			<clipPath id="SVGID_4_">
				<use xlink:href="#SVGID_3_"  style="overflow:visible;"/>
			</clipPath>
			<path class="st1" d="M614.3,167.3c20.8,0,35.8-15.7,35.8-34.7v-0.2c0-19.1-14.9-34.6-35.6-34.6c-20.7,0-35.8,15.7-35.8,34.7v0.2
				C578.7,151.9,593.6,167.3,614.3,167.3L614.3,167.3z M614.4,153.7c-11.9,0-20.3-9.6-20.3-21.1v-0.2c0-11.5,8.3-20.9,20.2-20.9
				s20.3,9.6,20.3,21.1v0.2C634.6,144.3,626.4,153.7,614.4,153.7L614.4,153.7z M661.8,166.2h14.8v-26h32v-13.4h-32v-14.3H713V99.1
				h-51.2V166.2z M750.7,166.2h51.2v-13.1h-36.5V139h31.7v-13.2h-31.7v-13.7h36V99h-50.7V166.2z M813.6,166.2h26.2
				c21.1,0,35.7-14.7,35.7-33.6v-0.2c0-18.9-14.6-33.4-35.7-33.4h-26.2V166.2z M828.3,152.9v-40.6h11.5c12.1,0,20.2,8.4,20.2,20.3
				v0.2c0,11.9-8.2,20.1-20.2,20.1L828.3,152.9L828.3,152.9z M915.2,167.3c18.1,0,29.5-10,29.5-30.4V99h-14.8v38.5
				c0,10.6-5.5,16.1-14.5,16.1s-14.5-5.6-14.5-16.6V99h-14.8v38.4C886.1,157.2,897.2,167.3,915.2,167.3 M989.8,167.3
				c13,0,20.6-4.6,27.6-12l-9.4-9.5c-5.3,4.8-10,7.9-17.7,7.9c-11.5,0-19.4-9.6-19.4-21.1v-0.2c0-11.5,8.2-20.9,19.4-20.9
				c6.7,0,12,2.9,17.2,7.6l9.4-10.8c-6.2-6.2-13.9-10.4-26.5-10.4c-20.6,0-35,15.7-35,34.7v0.2C955.4,152.1,970.1,167.3,989.8,167.3
				L989.8,167.3z M1022,166.2h15.1l6.1-15.1h28.4l6.1,15.1h15.5l-28.8-67.7h-13.7L1022,166.2z M1048.5,138l8.9-21.8l8.9,21.8H1048.5
				z M1109.1,166.2h14.8v-53.6h20.4V99h-55.7v13.6h20.5L1109.1,166.2L1109.1,166.2z M1154.9,166.2h14.8V99h-14.8V166.2z
				 M1217.7,167.3c20.7,0,35.8-15.7,35.8-34.7v-0.2c0-19.1-14.9-34.6-35.6-34.6s-35.8,15.7-35.8,34.7v0.2
				C1182.1,151.9,1197,167.3,1217.7,167.3L1217.7,167.3z M1217.9,153.7c-11.9,0-20.3-9.6-20.3-21.1v-0.2c0-11.5,8.2-20.9,20.2-20.9
				c11.9,0,20.3,9.6,20.3,21.1v0.2C1238.1,144.3,1229.8,153.7,1217.9,153.7L1217.9,153.7z M1265.3,166.2h14.6v-42.7l32.5,42.7h12.6
				V99h-14.6v41.4L1278.9,99h-13.6V166.2z"/>
		</g>
		<g>
			<defs>
				<rect id="SVGID_5_" y="-6.1" width="1587.4" height="184.3"/>
			</defs>
			<clipPath id="SVGID_6_">
				<use xlink:href="#SVGID_5_"  style="overflow:visible;"/>
			</clipPath>
			<path class="st2" d="M581.6,67.2h48.3V53.8h-33.5V0h-14.8V67.2z M640.3,67.2h14.8V0h-14.8V67.2z M670.4,67.2H685V24.5l32.6,42.7
				h12.5V0h-14.6v41.4L684,0h-13.6V67.2z M742.8,67.2h55.9v-13h-37l37-43V0h-54.8v13h35.8l-37,43L742.8,67.2L742.8,67.2z
				 M862.6,68.1c14.5,0,24.7-7.5,24.7-20.8v-0.2c0-11.8-7.7-16.6-21.4-20.2c-11.6-3-14.5-4.4-14.5-8.9v-0.2c0-3.2,2.9-5.8,8.6-5.8
				c5.6,0,11.5,2.5,17.5,6.6l7.7-11.2c-6.8-5.5-15.2-8.5-25-8.5c-13.7,0-23.5,8-23.5,20.3v0.2c0,13.3,8.8,17.1,22.3,20.5
				c11.2,2.9,13.6,4.8,13.6,8.6v0.2c0,3.9-3.7,6.3-9.7,6.3c-7.7,0-14-3.1-20-8.2l-8.8,10.5C842.2,64.6,852.5,68.1,862.6,68.1
				L862.6,68.1z M930.2,68.3c13,0,20.6-4.6,27.5-12l-9.4-9.5c-5.3,4.8-10,7.9-17.6,7.9c-11.5,0-19.5-9.6-19.5-21.1v-0.2
				c0-11.5,8.2-20.9,19.5-20.9c6.7,0,12,2.9,17.2,7.6l9.4-10.8c-6.2-6.2-13.8-10.4-26.5-10.4c-20.6,0-35,15.7-35,34.7v0.2
				C895.7,53.1,910.4,68.3,930.2,68.3 M968.1,67.2h14.8v-27h27.3v27h14.8V0h-14.8v26.6h-27.3V0h-14.8V67.2z M1072.3,68.3
				c20.7,0,35.8-15.7,35.8-34.7v-0.2c0-19.1-14.9-34.6-35.6-34.6s-35.8,15.7-35.8,34.7v0.2C1036.7,52.9,1051.5,68.3,1072.3,68.3
				L1072.3,68.3z M1072.5,54.7c-11.9,0-20.3-9.6-20.3-21.1v-0.2c0-11.5,8.2-20.9,20.2-20.9c11.9,0,20.3,9.6,20.3,21.1v0.2
				C1092.6,45.3,1084.4,54.7,1072.5,54.7L1072.5,54.7z M1152.5,68.3c20.7,0,35.8-15.7,35.8-34.7v-0.2c0-19.1-14.9-34.6-35.6-34.6
				c-20.8,0-35.8,15.7-35.8,34.7v0.2C1116.8,52.9,1131.7,68.3,1152.5,68.3L1152.5,68.3z M1152.6,54.7c-11.9,0-20.3-9.6-20.3-21.1
				v-0.2c0-11.5,8.2-20.9,20.2-20.9c11.9,0,20.3,9.6,20.3,21.1v0.2C1172.8,45.3,1164.5,54.7,1152.6,54.7L1152.6,54.7z M1200,67.2
				h48.3V53.8h-33.5V0H1200V67.2z"/>
		</g>
	</g>
</g>
</svg>
